<svg xmlns="http://www.w3.org/2000/svg" xmlns:xlink="http://www.w3.org/1999/xlink" width="46" height="60" viewBox="0 0 46 60"><defs><path id="lshua" d="M1078.13 2144.13a4.45 4.45 0 0 1-3.28-1.44l-.82-.9a.37.37 0 0 0-.4-.1l-1.14.48c-.45.2-.93.3-1.42.34v13.1l7.06-2.45c.22-.08.45-.08.67 0l7.06 2.45v-13.2a4.48 4.48 0 0 1-2.03-.32l-1.15-.46a.37.37 0 0 0-.4.09l-.8.92a4.47 4.47 0 0 1-3.35 1.5zm-11.62-4.74l-.34-1.17a.34.34 0 0 0-.32-.24l-1.23-.05a4.45 4.45 0 0 1-3.24-1.6 4.33 4.33 0 0 1-.92-3.46l.2-1.2a.34.34 0 0 0-.17-.36l-1.1-.57a4.3 4.3 0 0 1-1.52-6.34l.72-1a.34.34 0 0 0 0-.4l-.72-.97a4.29 4.29 0 0 1 1.41-6.36l1.08-.6c.13-.07.2-.21.18-.36l-.23-1.19a4.3 4.3 0 0 1 .87-3.47 4.4 4.4 0 0 1 3.22-1.65l1.22-.07c.15-.01.28-.11.32-.25l.32-1.17a4.4 4.4 0 0 1 5.93-2.88l1.15.47c.13.05.3 0 .4-.1l.8-.91a4.47 4.47 0 0 1 6.62-.05l.82.9c.1.1.27.14.4.09l1.13-.48a4.44 4.44 0 0 1 5.99 2.78l.35 1.15c.05.16.17.25.32.26l1.24.05a4.32 4.32 0 0 1 4.16 5.06l-.21 1.2c-.02.14.04.28.18.35l1.09.58a4.3 4.3 0 0 1 1.52 6.34l-.71.99a.34.34 0 0 0 0 .4l.72.99c.75 1 1.02 2.27.75 3.5a4.36 4.36 0 0 1-2.17 2.86l-1.07.59a.34.34 0 0 0-.18.36l.23 1.2a4.3 4.3 0 0 1-.87 3.46 4.44 4.44 0 0 1-3.22 1.65l-1.23.08c-.15 0-.29.1-.32.24l-.33 1.18a4.34 4.34 0 0 1-1.89 2.52c.02.07.02.14.02.22V2157a1 1 0 0 1-.42.82 1.02 1.02 0 0 1-.92.12l-8.08-2.8-8.07 2.8c-.31.1-.65.06-.92-.12a1 1 0 0 1-.43-.82v-14.83a4.38 4.38 0 0 1-2.53-2.8zm7.25.3c.67 0 1.32.27 1.78.77l.81.9a2.5 2.5 0 0 0 3.6-.03l.8-.91c.66-.75 1.76-1 2.69-.64l1.15.47a2.41 2.41 0 0 0 3.21-1.55l.33-1.18a2.36 2.36 0 0 1 2.15-1.71l1.23-.07a2.4 2.4 0 0 0 1.75-.9c.42-.53.59-1.21.47-1.88l-.23-1.18a2.32 2.32 0 0 1 1.18-2.47l1.07-.59a2.31 2.31 0 0 0 .77-3.45l-.72-.99c-.6-.81-.61-1.9-.01-2.72l.7-.99a2.33 2.33 0 0 0-.82-3.44l-1.09-.57a2.33 2.33 0 0 1-1.22-2.43l.21-1.21a2.35 2.35 0 0 0-2.25-2.75l-1.23-.05a2.35 2.35 0 0 1-2.18-1.68l-.35-1.14a2.4 2.4 0 0 0-3.25-1.52l-1.14.48c-.92.39-2.04.14-2.7-.6l-.82-.9a2.5 2.5 0 0 0-3.59.03l-.8.91c-.65.75-1.76 1-2.68.64l-1.15-.46a2.41 2.41 0 0 0-3.22 1.55l-.32 1.17a2.35 2.35 0 0 1-2.15 1.71l-1.23.08c-.69.03-1.32.36-1.74.9-.42.52-.6 1.2-.47 1.87l.22 1.19c.2.98-.28 1.97-1.18 2.46l-1.07.6a2.32 2.32 0 0 0-.77 3.45l.73.97c.6.82.6 1.91 0 2.73l-.7.98a2.33 2.33 0 0 0 .82 3.44l1.1.58a2.32 2.32 0 0 1 1.21 2.43l-.2 1.21a2.35 2.35 0 0 0 2.24 2.74l1.24.05c1.02.04 1.9.72 2.17 1.69l.34 1.16a2.4 2.4 0 0 0 3.25 1.5l1.13-.47c.3-.13.61-.19.93-.19zm4.25-3.37a13.47 13.47 0 0 1-13.56-13.34c0-7.36 6.09-13.35 13.56-13.35 7.48 0 13.56 5.99 13.56 13.35 0 7.36-6.08 13.34-13.56 13.34zm0-24.7c-6.36 0-11.53 5.1-11.53 11.36s5.17 11.35 11.53 11.35c6.36 0 11.54-5.1 11.54-11.35 0-6.26-5.18-11.36-11.54-11.36zm-.63 14.93c-.24 0-.48-.09-.67-.26l-2.87-2.55a.98.98 0 0 1-.07-1.4c.37-.41 1-.44 1.42-.07l2.15 1.9 4.36-4.3c.39-.39 1.03-.4 1.43 0 .4.38.4 1.01 0 1.4l-5.03 4.98c-.2.2-.46.3-.72.3z"/></defs><g><g transform="translate(-1055 -2100)"><use fill="#20aa97" xlink:href="#lshua"/></g></g></svg>