<svg xmlns="http://www.w3.org/2000/svg" xmlns:xlink="http://www.w3.org/1999/xlink" width="57" height="55" viewBox="0 0 57 55"><defs><path id="lmb7a" d="M419.16 2412.9c-11.49 0-20.86 7.69-21.1 17.2.42-.08.84-.12 1.26-.12h3.07a3.11 3.11 0 0 1 3.12 3.1v13.8c0 1.71-1.4 3.1-3.12 3.1h-3.07a7.28 7.28 0 0 1-7.31-7.23v-5.54a7.19 7.19 0 0 1 3.45-6.12l.7-.32a.95.95 0 0 1-.05-.29c0-10.75 10.34-19.5 23.05-19.5 12.7 0 23.05 8.75 23.05 19.5 0 .15-.04.28-.1.4l.44.2.12.07a7.19 7.19 0 0 1 3.34 6.06v5.54c0 2.6-1.4 4.9-3.5 6.17a.96.96 0 0 1-.23.32l-10.18 9.53a4.76 4.76 0 0 1-3.24 1.34h-2.75a3.88 3.88 0 0 1-3.76 2.89h-4.66a3.87 3.87 0 0 1-3.88-3.85 3.87 3.87 0 0 1 3.88-3.84h4.66c1.8 0 3.33 1.23 3.76 2.89h2.75c.68 0 1.34-.29 1.91-.82l7.9-7.4h-3.04a3.1 3.1 0 0 1-3.13-3.1v-13.8c0-1.71 1.4-3.1 3.13-3.1h3.07c.51 0 1.03.06 1.56.19-.2-9.55-9.59-17.26-21.1-17.26zm-22.81 19.9c-1.5.99-2.4 2.63-2.4 4.41v5.54c0 2.93 2.4 5.3 5.37 5.3h.75v-16.15h-.75c-.52 0-1.06.1-1.65.28zm6.04 15.26c.65 0 1.18-.53 1.18-1.17v-13.82c0-.64-.53-1.17-1.18-1.17H402v16.16zm33.24-16.16c-.66 0-1.19.53-1.19 1.17v13.82c0 .64.53 1.17 1.19 1.17h.38v-16.16zm3.07 16.16a5.34 5.34 0 0 0 5.37-5.31v-5.54c0-1.78-.9-3.42-2.4-4.41l-1.33-.62a5.31 5.31 0 0 0-1.64-.28h-.75v16.16zm-21 9.17c-1.08 0-1.95.86-1.95 1.92 0 1.07.87 1.93 1.94 1.93h4.66c1.07 0 1.94-.86 1.94-1.93 0-1.06-.87-1.92-1.94-1.92zm2.2-6.58a.96.96 0 0 1-.96-.96v-3.85c0-.53.43-.96.97-.96.53 0 .97.43.97.96v3.85c0 .53-.44.96-.97.96zm6.36 2.47c-.25 0-.5-.1-.68-.28a.95.95 0 0 1 0-1.35l2.75-2.73a.98.98 0 0 1 1.37 0c.38.38.38.98 0 1.36l-2.75 2.72a.97.97 0 0 1-.69.28zm-12.6 0c-.24 0-.5-.1-.68-.28l-2.76-2.72a.95.95 0 0 1 0-1.36.98.98 0 0 1 1.37 0l2.76 2.73c.38.37.38.98 0 1.35a.97.97 0 0 1-.69.28z"/></defs><g><g transform="translate(-391 -2409)"><use fill="#20aa97" xlink:href="#lmb7a"/></g></g></svg>