<svg xmlns="http://www.w3.org/2000/svg" xmlns:xlink="http://www.w3.org/1999/xlink" width="107" height="69" viewBox="0 0 107 69"><defs><path id="4vg1a" d="M1247.86 987h-5.25a3.51 3.51 0 0 1-3.49-2.9l-2.43-18.56h-2.29a5 5 0 0 1-5.03-4.72h-.27c-2.27 0-4.1-1.8-4.1-4.03v-7.82a4.07 4.07 0 0 1 4.1-4.04h.27a5 5 0 0 1 5.03-4.71h15.7c1.89 0 3.58 1.02 4.44 2.62 3.78-.03 15.51-.69 26.67-7.13 13.13-7.58 15.46-13.18 15.49-13.24.36-1 1.42-1.6 2.5-1.43a2.22 2.22 0 0 1 1.87 2.18v21.26c2.21.28 3.92 2.01 3.92 4.1v8.31c0 2.07-1.67 3.78-3.85 4.1-.02.3-.05.54-.08.73h.01v20.82a2.21 2.21 0 0 1-2.25 2.21c-.96 0-1.82-.6-2.13-1.49-.01-.02-2.35-5.64-15.48-13.21-11.16-6.44-22.89-7.1-26.66-7.13a5.04 5.04 0 0 1-4.46 2.62h-1l2.26 17.45a3.4 3.4 0 0 1-.8 2.78 3.54 3.54 0 0 1-2.7 1.23zm-18.76-39.67c-.92 0-1.66.74-1.66 1.64v7.82c0 .9.74 1.64 1.66 1.64h.26v-11.1zm2.7 12.3v.96c0 1.4 1.17 2.55 2.6 2.55h15.7c1.13 0 2.13-.72 2.47-1.78.04-.12.1-.23.17-.33l-.01-.14v-16.13-.04c-.07-.1-.12-.2-.16-.32a2.59 2.59 0 0 0-2.48-1.78h-15.69a2.58 2.58 0 0 0-2.6 2.55v13.54c0 .16-.03.32-.09.46.06.14.1.3.1.45zm9.74 24.12c.08.47.54.85 1.07.85h5.25c.32 0 .62-.14.83-.38.2-.25.3-.56.24-.87l-2.3-17.81h-7.48zm40.9-15.77c11.41 6.58 15.14 11.85 16.19 13.74v-20c0-.13.02-.26.06-.39.16-1.2.1-9.71-.06-17.27v-20.02c-1.05 1.89-4.78 7.16-16.19 13.74-11.12 6.42-22.78 7.35-27.27 7.45v15.3c4.49.1 16.15 1.03 27.27 7.45zm16.54-7.1zm0 0zm0 0zm3.56-3.99v-8.31c0-.76-.59-1.41-1.41-1.65.1 5.75.13 9.33.1 11.58.77-.26 1.31-.89 1.31-1.62zm25.24-1.73h-9.28c-.67 0-1.22-.54-1.22-1.2 0-.66.55-1.2 1.22-1.2h9.28c.67 0 1.22.54 1.22 1.2 0 .66-.55 1.2-1.22 1.2zm-8.67 21.31c-.3 0-.62-.11-.86-.35l-6.56-6.44a1.18 1.18 0 0 1 0-1.7 1.24 1.24 0 0 1 1.73 0l6.56 6.45c.47.46.47 1.22 0 1.7-.24.23-.55.34-.87.34zm-6.56-35.9c-.3 0-.62-.13-.86-.36a1.18 1.18 0 0 1 0-1.7l6.56-6.44a1.24 1.24 0 0 1 1.73 0c.47.47.47 1.23 0 1.7l-6.56 6.44c-.24.23-.55.35-.87.35z"/></defs><g><g transform="translate(-1223 -919)"><use fill="#20aa97" xlink:href="#4vg1a"/></g></g></svg>