<svg xmlns="http://www.w3.org/2000/svg" xmlns:xlink="http://www.w3.org/1999/xlink" width="65" height="42" viewBox="0 0 65 42"><defs><path id="mq7ea" d="M418.68 1814.54h-.22a6.43 6.43 0 0 1-4.44-1.66 12.84 12.84 0 0 1-2.53-3.37l-.01-.01a19.08 19.08 0 0 1-1.87-7.28v-1.05c.24-3.1 1.96-5.3 4.98-6.44a10.55 10.55 0 0 1 7.75 0c2.95 1.11 4.72 3.38 4.97 6.38v1.08a17 17 0 0 1-1.76 7.3 9.2 9.2 0 0 1-2.54 3.4 6.5 6.5 0 0 1-4.33 1.65zm-5.87-5.69c.5 1 1.2 1.95 2.22 2.96a4.98 4.98 0 0 0 3.43 1.25h.22c1.23 0 2.42-.45 3.34-1.28a7.83 7.83 0 0 0 2.18-2.88c1.09-2.3 1.63-4.54 1.63-6.71v-1.02c-.2-2.37-1.6-4.14-4.02-5.06a9.08 9.08 0 0 0-6.69 0c-2.49.93-3.84 2.65-4.04 5.12v.96c.11 2.23.7 4.49 1.73 6.66zm19.17 24.16h-26.82a4.2 4.2 0 0 1-3.99-2.82 29.44 29.44 0 0 1-.36-1.64v-3.78H391.11c-1.02 0-2.28-.6-2.82-1.93a2.78 2.78 0 0 1-.27-1.3v-2.64c-.15-.67.12-1.99 1.48-2.97.42-.33.95-.6 1.55-.78l3.56-1.3c1.4-.56 2.36-.17 2.9.25a.8.8 0 0 1 .08.07l.14.14c.27.27.44.52.53.68l.14.15 1.48 2.07.74-1.03a43.75 43.75 0 0 1 1.3-1.8c.32-.32.67-.67 1.25-.78l.26-.07a.72.72 0 0 1 .28-.02l1.1.15c.06 0 .11.02.17.04l3.67 1.4a4.8 4.8 0 0 1 2.4 1.66l1.67-.22c.1-.01.2 0 .28.02l.45.1c.75.16 1.21.62 1.7 1.1.14.15.2.28.25.37.6.79 1.16 1.57 1.69 2.33.47.66.95 1.36 1.45 2.01l2.59-3.6a.74.74 0 0 1 .18-.18l.03-.03c.18-.34.45-.7.77-1l.22-.23a3.77 3.77 0 0 1 3.56-.6 4.9 4.9 0 0 1 2.5-1.75l3.62-1.38.17-.04 1.1-.15c.1 0 .19 0 .28.02l.3.07c.54.11.89.46 1.22.79a1.1 1.1 0 0 1 .2.29c.38.49.74 1 1.1 1.5l.73 1.03 1.48-2.07c.04-.06.09-.1.14-.15.13-.22.31-.47.52-.68l.15-.14a.76.76 0 0 1 .07-.07c.55-.42 1.51-.82 2.93-.24l3.59 1.31c.55.16 1.08.43 1.53.78 1.33.96 1.6 2.28 1.45 2.95v2.63c0 .54-.09.94-.3 1.36a3.05 3.05 0 0 1-2.79 1.88h-9.55v3.67c0 .75-.13 1.32-.42 1.9a4.29 4.29 0 0 1-3.93 2.67zm-29.07-12.83a7.12 7.12 0 0 1 2.38-1.25l4.28-1.63a3.53 3.53 0 0 0-1.38-.8l-3.66-1.39-.88-.11-.15.04c-.16.03-.26.11-.5.34a44.65 44.65 0 0 1-2.26 3.14l-.3.38a.77.77 0 0 1-.6.28.74.74 0 0 1-.58-.3l-1.96-2.75a.9.9 0 0 1-.2-.22.73.73 0 0 1-.1-.15c-.02-.04-.11-.2-.31-.4l-.11-.12c-.16-.12-.58-.36-1.45-.01l-3.62 1.33c-.47.13-.83.31-1.12.54-.92.67-.94 1.37-.93 1.5.02.06.03.13.03.2v2.73c0 .35.06.52.15.7a1.62 1.62 0 0 0 1.47 1.06h9.65c.05 0 .09 0 .13.02.16-.85.64-2.08 2.02-3.13zm29.1-1.12c.82.23 1.59.62 2.22 1.12a5 5 0 0 1 2.1 3.11h9.55a1.6 1.6 0 0 0 1.45-1c.11-.24.17-.41.17-.76v-2.72c0-.08 0-.15.03-.22 0-.12 0-.81-.9-1.46a3.07 3.07 0 0 0-1.1-.56l-3.65-1.34c-.9-.35-1.3-.1-1.47.01l-.11.12c-.16.15-.26.3-.3.4a.72.72 0 0 1-.1.15.97.97 0 0 1-.2.22l-1.97 2.74a.74.74 0 0 1-.58.3c-.2.02-.45-.09-.6-.27l-.3-.37-1.08-1.5a42.6 42.6 0 0 0-1.18-1.65c-.24-.23-.33-.31-.46-.34l-.2-.04-.87.11-3.6 1.37a3.62 3.62 0 0 0-1.49.88zm-29.42 10.72a2.73 2.73 0 0 0 2.57 1.75h26.82c.7 0 2.02-.38 2.58-1.79.19-.37.29-.7.29-1.3v-4.18c0-.08.01-.17.04-.25.02-.14.09-1.47-1.54-2.64l-.03-.03a5.02 5.02 0 0 0-1.77-.88l-5.57-2.04c-1.1-.44-1.98-.4-2.64.09l-.2.19c-.33.33-.49.63-.53.7a.73.73 0 0 1-.14.2.94.94 0 0 1-.26.3l-3.04 4.23a.74.74 0 0 1-1.18.03l-.45-.56a65 65 0 0 1-1.66-2.3c-.51-.73-1.05-1.48-1.6-2.2a1.33 1.33 0 0 1-.2-.31c-.41-.42-.62-.61-.95-.68l-.35-.09-1.47.2-5.55 2.11c-.68.2-1.39.57-1.94 1.01-1.45 1.11-1.54 2.4-1.53 2.77v4.36c.1.5.2.9.3 1.31zm34.61-17.44h-.14c-1.2 0-2.23-.39-3.07-1.15a8.67 8.67 0 0 1-1.71-2.28l-.01-.01a12.72 12.72 0 0 1-1.25-4.84v-.7a4.91 4.91 0 0 1 3.42-4.45 7.14 7.14 0 0 1 5.24 0 4.96 4.96 0 0 1 3.4 4.39v.72c0 1.6-.39 3.24-1.17 4.88-.3.78-.86 1.52-1.71 2.29a4.5 4.5 0 0 1-3 1.15zm-3.6-4.08a7.2 7.2 0 0 0 1.4 1.86 3 3 0 0 0 2.06.74h.14c.74 0 1.45-.27 2.01-.77a4.87 4.87 0 0 0 1.35-1.78 9.97 9.97 0 0 0 1.05-4.3v-.65c-.12-1.43-.97-2.5-2.46-3.06a5.66 5.66 0 0 0-4.17-.01c-1.56.58-2.36 1.6-2.48 3.13v.6c.07 1.41.44 2.85 1.1 4.24zm6.26 7.68zm-39.93-3.6h-.14a4.5 4.5 0 0 1-3-1.15 6.28 6.28 0 0 1-1.73-2.33 11.25 11.25 0 0 1-1.16-4.84v-.66a4.98 4.98 0 0 1 3.42-4.45 7.12 7.12 0 0 1 5.24 0 4.89 4.89 0 0 1 3.4 4.39v.76c-.08 1.64-.5 3.27-1.24 4.84-.4.79-.93 1.5-1.7 2.26a4.46 4.46 0 0 1-3.09 1.18zm0-12.44c-.72 0-1.44.14-2.08.39-1.5.56-2.35 1.64-2.48 3.13v.6c0 1.38.35 2.8 1.04 4.24.26.65.69 1.22 1.37 1.83.56.5 1.27.77 2 .77h.15c.82 0 1.52-.26 2.08-.77a7.12 7.12 0 0 0 1.38-1.84c.66-1.37 1.03-2.8 1.1-4.25v-.64c-.12-1.47-.92-2.49-2.46-3.06a5.37 5.37 0 0 0-2.1-.4zm8.74 27.8h-3.44a.74.74 0 1 1 0-1.48h3.44a.74.74 0 1 1 0 1.47zm36.9-6.65h-2.4a.74.74 0 1 1 0-1.48h2.4a.74.74 0 1 1 0 1.48zm-51.66 0h-2.4a.74.74 0 1 1 0-1.48h2.4a.74.74 0 1 1 0 1.48z"/></defs><g><g transform="translate(-386 -1793)"><use fill="#20aa97" xlink:href="#mq7ea"/></g></g></svg>