<svg xmlns="http://www.w3.org/2000/svg" xmlns:xlink="http://www.w3.org/1999/xlink" width="66" height="73" viewBox="0 0 66 73"><defs><path id="yg51a" d="M964.4 986.83h-31.53a2.94 2.94 0 0 1-2.86-2.88v-63.09c0-.7.32-1.44.88-2a2.8 2.8 0 0 1 1.98-.87h32.14c.75.06 1.46.29 2 .8l13.79 13.87c.53.53.84 1.28.84 2.05v25.86c0 .73-.6 1.33-1.33 1.33-.74 0-1.33-.6-1.33-1.33v-24.18h-14.75c-.73 0-1.32-.6-1.32-1.34v-14.39h-30.04a.5.5 0 0 0-.2.24v63.05c0 .07.14.2.2.2h31.53c.73 0 1.33.6 1.33 1.34 0 .74-.6 1.34-1.33 1.34zm-6.74-45.49h-8.55a1.33 1.33 0 1 1 0-2.68h8.55c.74 0 1.33.6 1.33 1.35 0 .74-.6 1.33-1.33 1.33zm6.78 6.89h-21.78c-.74 0-1.33-.6-1.33-1.34 0-.74.6-1.34 1.33-1.34h21.78c.73 0 1.33.6 1.33 1.34 0 .74-.6 1.34-1.33 1.34zm1.11 8.3h-19.54c-.73 0-1.33-.6-1.33-1.34 0-.74.6-1.34 1.33-1.34h19.54c.74 0 1.33.6 1.33 1.34 0 .74-.59 1.34-1.33 1.34zm-9.84 9h-14.07c-.74 0-1.33-.6-1.33-1.34 0-.74.6-1.34 1.33-1.34h14.07c.73 0 1.33.6 1.33 1.34 0 .73-.6 1.33-1.33 1.33zM969.93 987a2.56 2.56 0 0 1-2.56-2.49c0-.3.06-.56.11-.76l1.84-6.55c.11-.41.38-.8.6-1.05l10.24-10.28a1.33 1.33 0 0 1 1.02-1.02l2.55-2.56c.66-.66 1.46-1 2.33-1 .96 0 1.8.36 2.53 1.09l3.44 3.46a3.4 3.4 0 0 1 .96 2.62c-.1.86-.44 1.57-1 2.13l-13.76 13.81c-.37.37-.79.52-1.11.61l-6.46 1.89c-.23.07-.47.1-.73.1zm16.13-23.04c-.1 0-.25.03-.45.22l-2.12 2.13 4.5 4.51 2.11-2.12a.83.83 0 0 0 .24-.49.7.7 0 0 0-.2-.48l-3.44-3.46c-.25-.25-.44-.3-.64-.3zm-14.18 13.99l-.03.06-1.75 6.26 6.28-1.83.05-.01 9.67-9.72-4.5-4.52zm-6.31-44.25h12.5l-12.5-12.58z"/></defs><g><g transform="translate(-929 -916)"><use fill="#20aa97" xlink:href="#yg51a"/></g></g></svg>