<svg xmlns="http://www.w3.org/2000/svg" xmlns:xlink="http://www.w3.org/1999/xlink" width="56" height="52" viewBox="0 0 56 52"><defs><path id="et23a" d="M400.75 1498a.9.9 0 0 1-.76-1.39l4.18-6.64a.9.9 0 0 1 .24-.25 22.35 22.35 0 0 1-3.93-5.43 22.04 22.04 0 0 1-1.4-16.99 22.15 22.15 0 0 1 11.08-13 22.52 22.52 0 0 1 24.05 2.3c.4.3.46.87.15 1.27a.9.9 0 0 1-1.27.15 20.7 20.7 0 0 0-22.1-2.11 20.36 20.36 0 0 0-10.18 11.94 20.25 20.25 0 0 0 1.28 15.61 20.4 20.4 0 0 0 12 10.14 20.5 20.5 0 0 0 15.68-1.29c4.89-2.5 8.5-6.74 10.18-11.94a20.25 20.25 0 0 0-1.29-15.61.9.9 0 0 1 .4-1.22.9.9 0 0 1 1.21.4 22.04 22.04 0 0 1 1.4 16.98 22.13 22.13 0 0 1-6 9.46l3.91 6.23a.9.9 0 0 1-.76 1.39.9.9 0 0 1-.77-.43l-3.78-6a22.62 22.62 0 0 1-13.87 4.82 22.51 22.51 0 0 1-14.7-5.46l-4.18 6.64a.9.9 0 0 1-.77.43zm19.65-7.6a16.4 16.4 0 0 1-14.88-9.46 16.21 16.21 0 0 1 8-21.62 16.52 16.52 0 0 1 16.12 1.36.9.9 0 0 1 .24 1.25.9.9 0 0 1-1.26.23 14.7 14.7 0 0 0-14.34-1.2 14.42 14.42 0 0 0-7.12 19.22 14.6 14.6 0 0 0 19.32 7.09 14.48 14.48 0 0 0 7.11-19.23.9.9 0 0 1 1.65-.76 16.28 16.28 0 0 1-14.84 23.12zm-.04-5.74a10.58 10.58 0 0 1-9.24-15.68 10.59 10.59 0 0 1 14.2-4.2.9.9 0 0 1 .37 1.21.9.9 0 0 1-1.22.38 8.78 8.78 0 0 0-12.54 10.13 8.76 8.76 0 0 0 10.85 6.01 8.72 8.72 0 0 0 6.05-10.8.9.9 0 0 1 .62-1.1.9.9 0 0 1 1.12.61 10.51 10.51 0 0 1-10.2 13.44zm.03-4.94a5.62 5.62 0 1 1 1.02-11.13.9.9 0 1 1-.33 1.78 3.82 3.82 0 0 0-4.46 3.04 3.81 3.81 0 0 0 5.92 3.84 3.78 3.78 0 0 0 1.6-2.44.9.9 0 0 1 1.06-.73c.49.1.81.57.72 1.06a5.61 5.61 0 0 1-5.53 4.59zm23.76-18.94h-.17l-4.11-.42h-1.08l-17.43 14.15a.9.9 0 0 1-1.15-1.4l17.43-14.15.02-.08.22-1 .4-4.05c.05-.5.32-.97.73-1.28l4.45-3.2c.3-.2.66-.33 1.03-.34.5-.03 1 .2 1.37.6.36.39.53.9.48 1.4l-.23 2.25 2.26.23c.7.07 1.31.57 1.53 1.23.23.66.03 1.41-.47 1.89l-4.05 3.69c-.33.3-.77.48-1.23.48zm-4.26-2.23h.1l4.16.43 4.05-3.7-2.86-.28a1.23 1.23 0 0 1-1.1-1.34l.3-2.84-4.46 3.19-.41 4.1-.02.1-.07.35h.3z"/></defs><g><g transform="translate(-396 -1447)"><use fill="#20aa97" xlink:href="#et23a"/></g></g></svg>