<svg xmlns="http://www.w3.org/2000/svg" xmlns:xlink="http://www.w3.org/1999/xlink" width="46" height="45" viewBox="0 0 46 45"><defs><path id="kii3a" d="M1072.84 1484.45c-8.73 0-15.84-7.28-15.84-16.22 0-8.95 7.1-16.22 15.84-16.22s15.84 7.27 15.84 16.22c0 4.15-1.52 7.94-4.03 10.8l2.7 2.77 1.3-1.33a2.15 2.15 0 0 1 3.08 0l6.2 6.35a3.78 3.78 0 0 1 0 5.24l-1.8 1.84a3.56 3.56 0 0 1-5.12 0l-.85-.86a.83.83 0 0 1-.05-.05l-5.3-5.43a2.25 2.25 0 0 1-.64-1.58c0-.6.23-1.16.64-1.58l1.43-1.46-2.7-2.76a15.58 15.58 0 0 1-10.7 4.27zm0-30.84c-7.87 0-14.27 6.56-14.27 14.62 0 8.06 6.4 14.62 14.27 14.62 7.87 0 14.28-6.56 14.28-14.62 0-8.06-6.4-14.62-14.28-14.62zm17.35 27.81a.6.6 0 0 0-.44.19l-3.83 3.92a.63.63 0 0 0-.18.45c0 .17.06.33.18.44l4.77 4.9 4.6-4.73a.8.8 0 0 1 .12-.09l-4.78-4.9a.6.6 0 0 0-.44-.18zm1.92 11.35c.78.8 2.14.8 2.91 0l1.8-1.84c.8-.82.8-2.16 0-2.98l-.32-.33a.8.8 0 0 1-.1.1l-4.6 4.73zm-28.09-28.85a.77.77 0 0 1-.44-.14.81.81 0 0 1-.2-1.11 14.82 14.82 0 0 1 6.72-5.62c.4-.17.86.03 1.02.44a.81.81 0 0 1-.43 1.05 13.26 13.26 0 0 0-6.02 5.03.78.78 0 0 1-.65.35z"/></defs><g><g transform="translate(-1055 -1451)"><use fill="#20aa97" xlink:href="#kii3a"/></g></g></svg>