<svg xmlns="http://www.w3.org/2000/svg" xmlns:xlink="http://www.w3.org/1999/xlink" width="49" height="55" viewBox="0 0 49 55"><defs><path id="oc0ia" d="M418.8 2156a.93.93 0 0 1-.3-.05.94.94 0 0 1-.55.02c-.26-.07-6.5-1.8-12.12-7.92-5.11-5.58-10.7-16.05-8.27-34.23a2.14 2.14 0 0 1 2.1-1.85 24.41 24.41 0 0 0 17.33-7.33 2.14 2.14 0 0 1 3.03 0 24.42 24.42 0 0 0 17.32 7.33c1.06 0 1.96.8 2.1 1.85 2.43 18.18-3.16 28.65-8.27 34.23-5.61 6.13-11.86 7.85-12.12 7.92a.93.93 0 0 1-.24.03zm-.3-50.12a.25.25 0 0 0-.18.08 26.27 26.27 0 0 1-18.65 7.88c-.13 0-.24.1-.26.23-2.33 17.46 2.95 27.43 7.8 32.72a26.5 26.5 0 0 0 11.23 7.38c.02 0 .04 0 .06.02l.06-.02c.06-.02 6-1.68 11.23-7.38 4.84-5.3 10.13-15.26 7.8-32.72a.26.26 0 0 0-.26-.23 26.27 26.27 0 0 1-18.65-7.88.26.26 0 0 0-.18-.08zm0 42.89c-.16 0-.31-.02-.47-.07-.18-.05-4.69-1.29-8.72-5.7-2.97-3.24-6.17-8.78-6.35-17.69v-.1c-.04-2.05.08-4.3.4-6.72.13-.88.88-1.55 1.77-1.55a17.06 17.06 0 0 0 12.1-5.12c.34-.34.78-.53 1.26-.53.5 0 .94.2 1.28.53a17.06 17.06 0 0 0 12.1 5.12c.89 0 1.64.67 1.76 1.55 1.74 13-2.27 20.5-5.94 24.51a20.06 20.06 0 0 1-8.73 5.7c-.15.05-.3.07-.46.07zm-13.29-29.96c-.19 1.42-.3 2.77-.36 4.05l4.22-4.48c-1.26.27-2.55.42-3.86.43zm-.12 10.1l12.48-12.6v-2.23a19.03 19.03 0 0 1-4.93 3.14c-.05.1-.1.2-.2.3l-7.6 8.08c.03 1.17.12 2.27.25 3.3zm12.48.18v-3.28l-3.28 3.28zm0-10.13l-10.03 10.13h4.1l.03-.03 5.9-5.9zm-6.88 22.78a19.25 19.25 0 0 0 6.88 4.82v-15.6h-12.14a22.14 22.14 0 0 0 5.26 10.78zm15.62 0a21.53 21.53 0 0 0 4.8-8.88l-11.68 12.4v1.3a19.45 19.45 0 0 0 6.88-4.82zm-6.88-10.78v5.5l5.5-5.5zm0 11.58l10.9-11.58h-3.15c0 .24-.09.48-.27.66l-7.48 7.48zm12.36-23.73a18.89 18.89 0 0 1-12.36-4.73v15.01h12.45c.4-2.92.43-6.33-.1-10.28z"/></defs><g><g transform="translate(-394 -2103)"><use fill="#3ab09f" xlink:href="#oc0ia"/></g></g></svg>