<svg xmlns="http://www.w3.org/2000/svg" xmlns:xlink="http://www.w3.org/1999/xlink" width="98" height="72" viewBox="0 0 98 72"><defs><path id="b808a" d="M1620.98 655.6h-54.52c-.7 0-1.28-.57-1.28-1.26v-28.72c0-.69.58-1.25 1.28-1.25h54.52c.71 0 1.28.56 1.28 1.25v28.72c0 .7-.57 1.25-1.28 1.25zm-53.24-2.52h4.4a5.47 5.47 0 0 0-4.4-4.05zm44.62 0a8 8 0 0 1 7.34-6.61v-12.81a8 8 0 0 1-7.37-6.78h-37.55a8 8 0 0 1-7.04 6.75v12.87a8 8 0 0 1 7.01 6.58zm7.34 0v-4.1a5.47 5.47 0 0 0-4.74 4.1zm0-26.2h-4.77a5.47 5.47 0 0 0 4.77 4.26zm-51.96 0v4.22a5.46 5.46 0 0 0 4.44-4.22zm26.7 24.81a11.8 11.8 0 0 1-11.9-11.67 11.8 11.8 0 0 1 11.9-11.67 11.8 11.8 0 0 1 11.9 11.67 11.8 11.8 0 0 1-11.9 11.67zm0-20.83a9.27 9.27 0 0 0-9.34 9.16c0 5.05 4.19 9.16 9.34 9.16a9.27 9.27 0 0 0 9.35-9.16c0-5.05-4.2-9.16-9.35-9.16zm-.63 13.38a5.16 5.16 0 0 1-2.1-.62.92.92 0 0 1-.3-1.35l.01-.01a.95.95 0 0 1 1.25-.27c.53.31 1.18.53 1.92.53.72 0 1.16-.28 1.16-.66 0-1.09-4.61-.22-4.61-3.28 0-1.21.94-2.3 2.67-2.5v-1.12h1.35v1.13c.59.08 1.13.24 1.62.49.52.25.63.92.29 1.37a.98.98 0 0 1-1.21.24 3.94 3.94 0 0 0-1.7-.39c-.6 0-.88.24-.88.57 0 1.02 4.6.28 4.6 3.24 0 1.43-.96 2.44-2.72 2.63v1.08h-1.35zm22.6-21.35h-46.05c-.7 0-1.28-.56-1.28-1.25 0-.7.57-1.25 1.28-1.25h46.05c.71 0 1.28.56 1.28 1.25 0 .7-.57 1.25-1.28 1.25zm-5.71-3.65h-34.42c-.7 0-1.27-.56-1.27-1.25 0-.7.57-1.26 1.27-1.26h34.42c.7 0 1.28.57 1.28 1.26 0 .69-.58 1.25-1.28 1.25zm28.31 13.17a1.26 1.26 0 0 1-1.28 1.34c-.66 0-1.22-.51-1.27-1.17a26.03 26.03 0 0 0-19.52-23.33l1.8 3.2c.33.6.1 1.37-.51 1.7a1.29 1.29 0 0 1-1.74-.5l-3.18-5.66a1.25 1.25 0 0 1 .5-1.7l5.78-3.12a1.3 1.3 0 0 1 1.74.49c.34.6.11 1.37-.5 1.7l-2.9 1.56a28.53 28.53 0 0 1 21.08 25.49zm-94 10.19c-.04-.7.49-1.3 1.2-1.34.73-.03 1.3.48 1.36 1.17a26.03 26.03 0 0 0 19.52 23.32l-1.8-3.2c-.34-.6-.11-1.36.5-1.7a1.3 1.3 0 0 1 1.75.5l3.18 5.67a1.23 1.23 0 0 1-.5 1.7l-5.79 3.12a1.3 1.3 0 0 1-1.73-.5c-.35-.6-.12-1.36.5-1.7l2.9-1.56A28.53 28.53 0 0 1 1545 642.6z"/></defs><g><g transform="translate(-1543 -601)"><use fill="#20aa97" xlink:href="#b808a"/></g></g></svg>