<svg xmlns="http://www.w3.org/2000/svg" xmlns:xlink="http://www.w3.org/1999/xlink" width="62" height="72" viewBox="0 0 62 72"><defs><path id="l47qa" d="M337.31 667.6h-30.54a2.83 2.83 0 0 1-2.77-2.74v-60.12c0-.68.31-1.38.86-1.92a2.73 2.73 0 0 1 1.91-.83h31.13c.68.05 1.43.28 1.94.78l13.36 13.2c.52.51.82 1.23.82 1.96v23.36a3.74 3.74 0 0 1 3.84.89l2.71 2.68a3.58 3.58 0 0 1 .5 4.59 3.6 3.6 0 0 1 2.92 3.57v3.77a3.66 3.66 0 0 1-2.9 3.6c.95 1.3.78 3.28-.5 4.55l-2.73 2.7a3.84 3.84 0 0 1-4.62.47 3.63 3.63 0 0 1-3.61 2.89h-3.82a3.68 3.68 0 0 1-3.64-2.88c-1.3.88-3.4.69-4.6-.49l-.04-.04-.22.01zm14.13-48.34H337.2c-.72 0-1.3-.58-1.3-1.28v-13.44h-29.14a.48.48 0 0 0-.2.23l.01 60.1c0 .06.13.18.2.18h28.19l-.11-.11a3.67 3.67 0 0 1-.48-4.58 3.6 3.6 0 0 1-2.93-3.57v-3.77a3.66 3.66 0 0 1 2.9-3.6c-.95-1.3-.78-3.28.5-4.55l2.72-2.7a3.78 3.78 0 0 1 4.63-.47 3.62 3.62 0 0 1 3.61-2.9h3.82c.65 0 1.27.17 1.8.46zm-12.94-2.55h11.79l-11.8-11.67zm-9.5 5.04h-8.28c-.7 0-1.29-.57-1.29-1.28 0-.7.58-1.27 1.3-1.27H329c.71 0 1.29.57 1.29 1.27 0 .7-.58 1.28-1.3 1.28zm6.57 6.56h-21.1c-.7 0-1.28-.57-1.28-1.28 0-.7.57-1.27 1.29-1.27h21.1c.7 0 1.28.57 1.28 1.27 0 .7-.57 1.28-1.29 1.28zm1.09 7.9h-18.94c-.7 0-1.29-.56-1.29-1.27 0-.7.58-1.27 1.3-1.27h18.93c.71 0 1.29.57 1.29 1.27 0 .7-.58 1.28-1.3 1.28zm-9.54 8.58h-13.63c-.72 0-1.3-.57-1.3-1.27 0-.7.58-1.28 1.3-1.28h13.63c.71 0 1.29.57 1.29 1.28 0 .7-.58 1.27-1.3 1.27zm15.97 19.84a1.28 1.28 0 0 1 1.27 1.05l.3 1.74c.08.63.56 1.03 1.15 1.03h3.82c.57 0 1.03-.38 1.09-.9l.31-1.86a1.3 1.3 0 0 1 2-.83l1.46 1c.6.46 1.18.34 1.55-.03l2.72-2.7c.4-.39.46-.98.15-1.35l-1.12-1.56c-.26-.36-.31-.82-.14-1.23.17-.4.53-.69.97-.76l1.75-.3a1.1 1.1 0 0 0 1.04-1.14v-3.77c0-.57-.38-1.02-.91-1.08l-1.88-.31c-.43-.08-.8-.37-.97-.77-.17-.4-.12-.86.13-1.22l1.01-1.43c.41-.53.4-1.14 0-1.52l-.03-.02-2.72-2.69c-.4-.4-1-.46-1.37-.15l-1.58 1.12a1.3 1.3 0 0 1-2.01-.83l-.3-1.73a1.11 1.11 0 0 0-1.15-1.03h-3.82c-.57 0-1.03.38-1.09.9l-.31 1.86a1.3 1.3 0 0 1-2 .83l-1.46-1a1.2 1.2 0 0 0-1.58.05l-2.7 2.67c-.39.4-.46.99-.14 1.35l1.12 1.57a1.27 1.27 0 0 1-.83 2l-1.75.3c-.64.07-1.04.54-1.04 1.13v3.77c0 .57.38 1.02.91 1.08l1.88.31c.43.07.8.36.97.76.17.4.12.87-.13 1.23l-1.01 1.43c-.4.5-.35 1.14.05 1.56l2.7 2.67c.37.36 1.14.34 1.35.16l.1-.09 1.5-1.04c.22-.15.48-.23.74-.23zm5.18-2.39a7.39 7.39 0 0 1-7.42-7.34 7.39 7.39 0 0 1 7.42-7.33c4.1 0 7.42 3.29 7.42 7.33a7.39 7.39 0 0 1-7.42 7.34zm0-12.12a4.82 4.82 0 0 0-4.84 4.78 4.82 4.82 0 0 0 4.84 4.8 4.82 4.82 0 0 0 4.84-4.8 4.82 4.82 0 0 0-4.84-4.78z"/></defs><g><g transform="translate(-303 -600)"><use fill="#20aa97" xlink:href="#l47qa"/></g></g></svg>