<svg xmlns="http://www.w3.org/2000/svg" xmlns:xlink="http://www.w3.org/1999/xlink" width="70" height="73" viewBox="0 0 70 73"><defs><path id="fap9a" d="M1310.01 635.71a1.25 1.25 0 0 1-1.24 1.34c-.65 0-1.19-.5-1.24-1.17a26.4 26.4 0 0 0-19.5-23.82l1.82 3.32a1.25 1.25 0 0 1-1.1 1.85c-.43 0-.85-.24-1.08-.65l-3.17-5.78a1.26 1.26 0 0 1 .5-1.7l5.74-3.17c.6-.33 1.36-.11 1.69.49.33.6.11 1.36-.49 1.7l-2.94 1.62a28.9 28.9 0 0 1 21.01 25.97zm-16.79 20.3h-.2a6.1 6.1 0 0 1-4.22-1.6 11.78 11.78 0 0 1-2.31-3.09l-.01-.02c-1-2.1-1.56-4.3-1.67-6.52v-.93a6.76 6.76 0 0 1 4.68-6.14 9.64 9.64 0 0 1 7.1 0 6.82 6.82 0 0 1 4.66 6.03v.98c0 2.16-.53 4.38-1.58 6.58a8.58 8.58 0 0 1-2.32 3.12 6.19 6.19 0 0 1-4.13 1.58zm-4.5-5.8c.4.8.97 1.57 1.8 2.4.44.4.97.67 1.59.8.08-.6.6-1.07 1.22-1.07h.01c.58 0 1.06.4 1.2.92.42-.16.81-.4 1.15-.7a6.2 6.2 0 0 0 1.71-2.26 13 13 0 0 0 1.37-5.58v-.87c-.15-1.75-1.22-3.1-3.08-3.8a7.19 7.19 0 0 0-5.3-.01c-1.95.73-2.95 2-3.1 3.9v.78c.1 1.82.57 3.69 1.42 5.5zm15.94 20.8h-23.07a4.22 4.22 0 0 1-4.02-2.9 26.85 26.85 0 0 1-.33-1.57v-3.8c0-.53.1-2.42 2.04-3.9a6.72 6.72 0 0 1 2.26-1.2l4.74-1.8c.1-.04.19-.07.28-.08l1.46-.2c.15-.02.31 0 .46.03l.39.1a3.35 3.35 0 0 1 2.04 1.52c.5.65.97 1.32 1.44 2l.74 1.05 1.74-2.43c.06-.08.12-.15.2-.22.13-.23.36-.56.7-.91l.2-.2.12-.1c1.1-.86 2.57-1 4.13-.37l4.72 1.74c.74.21 1.46.58 2.07 1.06 1.87 1.37 2.23 3.18 2.04 4.17v3.45a4.1 4.1 0 0 1-.43 1.92 4.28 4.28 0 0 1-3.92 2.64zm-24.7-3.6c.43 1 1.28 1.1 1.63 1.1h23.07c.05 0 1.2-.01 1.66-1.16.15-.3.2-.5.2-.9v-3.6c0-.12.02-.23.05-.34 0-.17-.06-.93-1.08-1.68-.02 0-.04-.02-.05-.03a3.7 3.7 0 0 0-1.31-.65l-4.84-1.79c-1.01-.4-1.48-.16-1.66-.03l-.14.13a2 2 0 0 0-.35.46c-.04.09-.1.17-.15.24-.1.14-.19.24-.29.33l-2.57 3.6c-.22.3-.58.5-.97.51-.4 0-.76-.16-1-.46l-.4-.5c-.5-.66-.97-1.33-1.44-2-.44-.63-.88-1.26-1.35-1.87-.1-.11-.16-.22-.2-.3-.26-.25-.35-.33-.45-.35l-.2-.05-1.09.14-4.71 1.8a4.5 4.5 0 0 0-1.5.79c-1.04.79-1.1 1.65-1.1 1.9v3.72l.24 1zm-35.97-26.85a1.25 1.25 0 0 1 1.15-1.33c.69-.04 1.28.47 1.33 1.16a26.4 26.4 0 0 0 19.5 23.82l-1.37-2.5c-.33-.6-.1-1.36.5-1.7.6-.33 1.35-.1 1.68.5l2.71 4.96c.34.6.12 1.36-.48 1.69l-4.94 2.73a1.23 1.23 0 0 1-1.69-.5c-.33-.6-.1-1.35.5-1.69l2.12-1.17a28.89 28.89 0 0 1-21.01-25.97zm36.37-23.89h-3.4v12.42h.76c.69 0 1.24.56 1.24 1.25s-.55 1.25-1.24 1.25H1248c-.68 0-1.24-.56-1.24-1.25 0-.7.56-1.25 1.24-1.25h.66v-12.42h-3c-.54 0-1.01-.35-1.18-.87-.16-.52.03-1.09.47-1.4l17.35-12.19c.43-.3 1-.3 1.42 0l17.35 12.19a1.25 1.25 0 0 1-.71 2.27zm-5.88 0h-3.82v12.42h3.82zm-6.3 0h-3.83v12.42h3.82zm-6.31 0h-4.12v12.42h4.12zm-6.6 0h-4.12v12.42h4.12zm-5.66-2.5h26.8l-13.4-9.41zm30.76 21.1h-34.5a1.24 1.24 0 0 1 0-2.5h34.5c.69.01 1.24.57 1.24 1.26 0 .69-.55 1.25-1.24 1.25z"/></defs><g><g transform="translate(-1242 -600)"><use fill="#20aa97" xlink:href="#fap9a"/></g></g></svg>