<svg xmlns="http://www.w3.org/2000/svg" xmlns:xlink="http://www.w3.org/1999/xlink" width="52" height="47" viewBox="0 0 52 47"><defs><path id="q7p9a" d="M1084.03 1835h-.14c-.71 0-1.53-.09-2.24-.23-4.16-.76-8.18-2.53-12.28-5.38a40.96 40.96 0 0 1-10.17-10.09 31.73 31.73 0 0 1-3.9-7.28c-.77-2.11-1.44-4.2-1.3-6.6v-.1c.08-.93.31-3.74 2.75-5.54 1.3-1.02 2.6-1.75 3.95-2.23.5-.16 1.07-.25 1.59-.25a4.6 4.6 0 0 1 3.77 1.9c.96 1.34 1.94 2.72 2.9 4.02l.7.96c.36.48.72.98 1.07 1.55a4.5 4.5 0 0 1-.15 4.89 7.54 7.54 0 0 1-1.4 1.6l-1.04.89c.14.2.29.38.45.58a51.31 51.31 0 0 0 8.09 7.58l.25-.31.78-.98c.39-.46.76-.76 1.07-1l.03-.03a4.64 4.64 0 0 1 5.61-.23 338.9 338.9 0 0 1 6.35 4.15 4.43 4.43 0 0 1 2 5.03c-.8 2.49-1.99 4.31-3.67 5.62-.34.25-.58.4-.76.5l-.28.14c-1.38.56-2.72.83-4.03.83zm-21.74-36.1c-.35 0-.75.06-1.06.17-1.16.41-2.3 1.06-3.5 1.98-1.85 1.38-2.03 3.57-2.1 4.4v.08c-.13 2.09.47 3.93 1.2 5.94a30.1 30.1 0 0 0 3.7 6.9 39.37 39.37 0 0 0 9.77 9.7c3.91 2.73 7.73 4.4 11.66 5.12.62.13 1.32.2 1.93.2h.14c1.1 0 2.23-.24 3.36-.7l.22-.1c.04-.03.18-.1.5-.34a9.56 9.56 0 0 0 3.1-4.79c.33-1.3-.15-2.5-1.32-3.24h-.02c-2.4-1.62-4.43-2.94-6.35-4.16a3.05 3.05 0 0 0-3.59.06l-.03.04a4.7 4.7 0 0 0-.92.83l-.77.96-.74.93a.82.82 0 0 1-1.13.15 52.57 52.57 0 0 1-9-8.3l-.51-.66-.46-.58a.8.8 0 0 1 .14-1.16c.53-.4 1.08-.87 1.61-1.33.37-.3.74-.72 1.1-1.27.67-.98.71-2.22.13-3.16-.33-.52-.66-.97-1-1.45l-.7-.96c-.97-1.3-1.96-2.69-2.91-4.03a2.95 2.95 0 0 0-2.45-1.23zm26.81 17.42c-1.53 0-2.94-.24-4.3-.74-.95-.29-1.91-.77-2.97-1.48-.34.03-.64.03-.97.03h-.69c-.83 0-1.67-.17-2.8-.56a.88.88 0 0 1-.2-.04c-1.48-.57-2.32-1.47-2.51-2.67a2.9 2.9 0 0 1 1.3-2.76l.76-.53c-.82-2.63-.78-5.4.12-8.07.85-2.3 2.23-4.23 4-5.63a13.12 13.12 0 0 1 12.47-2.17c3.28 1.1 5.9 3.4 7.4 6.48a12.42 12.42 0 0 1-3.41 15.23 13.18 13.18 0 0 1-8.2 2.9zm-7.06-3.86c.17 0 .34.05.47.15a9.84 9.84 0 0 0 2.82 1.45c1.21.44 2.43.65 3.77.65 2.57 0 5.12-.9 7.17-2.55a10.84 10.84 0 0 0 2.96-13.29 10.98 10.98 0 0 0-6.44-5.66 11.48 11.48 0 0 0-10.93 1.91 11.15 11.15 0 0 0-3.48 4.91c-.85 2.5-.83 5.12.07 7.57a.8.8 0 0 1-.3.92l-1.24.89c-.47.33-.68.74-.63 1.26.05.32.26.87 1.39 1.32l.15.04c.99.35 1.7.5 2.35.5h.7c.4 0 .69 0 1.04-.06l.13-.01zm8.95-12.08h-4.69a.8.8 0 0 1-.81-.8c0-.44.36-.8.81-.8h4.69a.8.8 0 0 1 .81.8.8.8 0 0 1-.81.8zm3.71 3.94h-10.1a.8.8 0 0 1-.8-.8c0-.45.36-.8.8-.8h10.1a.8.8 0 0 1 .81.8.8.8 0 0 1-.81.8zm-1.26 4.22h-5.96a.8.8 0 0 1-.81-.8c0-.45.36-.81.81-.81h5.96a.8.8 0 0 1 .81.8.8.8 0 0 1-.81.8z"/></defs><g><g transform="translate(-1052 -1789)"><use fill="#20aa97" xlink:href="#q7p9a"/></g></g></svg>