<svg xmlns="http://www.w3.org/2000/svg" xmlns:xlink="http://www.w3.org/1999/xlink" width="75" height="72" viewBox="0 0 75 72"><defs><path id="ltjba" d="M638.7 920.56c-15.11 0-27.44 10.19-27.76 22.81.57-.1 1.12-.16 1.66-.16h4.04a4.1 4.1 0 0 1 4.11 4.1v18.33a4.1 4.1 0 0 1-4.1 4.1h-4.05a9.6 9.6 0 0 1-9.6-9.59v-7.35a9.56 9.56 0 0 1 4.54-8.12l.9-.42a1.27 1.27 0 0 1-.05-.38c0-14.27 13.6-25.87 30.3-25.87 16.72 0 30.32 11.6 30.32 25.87 0 .19-.04.37-.12.53l.57.27.16.09a9.56 9.56 0 0 1 4.39 8.03v7.35c0 3.46-1.85 6.5-4.61 8.18-.07.16-.16.3-.3.42l-13.38 12.66a6.23 6.23 0 0 1-4.27 1.78h-3.61a5.12 5.12 0 0 1-4.95 3.82h-6.12a5.1 5.1 0 1 1 0-10.2h6.12a5.12 5.12 0 0 1 4.95 3.83h3.61c.9 0 1.77-.37 2.52-1.08l10.4-9.82h-4.01a4.1 4.1 0 0 1-4.11-4.1v-18.33a4.1 4.1 0 0 1 4.1-4.1h4.05c.67 0 1.35.08 2.05.25-.26-12.67-12.61-22.9-27.75-22.9zm-30 26.38a7.02 7.02 0 0 0-3.16 5.86v7.35a7.06 7.06 0 0 0 7.06 7.04h1v-21.43h-1c-.68 0-1.39.12-2.16.37zm7.94 20.25c.86 0 1.56-.7 1.56-1.55v-18.33c0-.86-.7-1.55-1.56-1.55h-.5v21.43zm43.72-21.43c-.86 0-1.56.7-1.56 1.55v18.33c0 .86.7 1.55 1.56 1.55h.5v-21.43zm4.04 21.43c3.89 0 7.06-3.16 7.06-7.04v-7.35a7.02 7.02 0 0 0-3.16-5.86l-1.74-.8a6.92 6.92 0 0 0-2.16-.38h-1v21.43zm-27.63 12.17a2.56 2.56 0 1 0 0 5.1h6.12a2.56 2.56 0 1 0 0-5.1zm2.91-8.73c-.7 0-1.27-.57-1.27-1.27v-5.11a1.27 1.27 0 0 1 2.54 0v5.11c0 .7-.57 1.27-1.27 1.27zm8.36 3.28a1.27 1.27 0 0 1-.9-2.17l3.62-3.62a1.27 1.27 0 1 1 1.8 1.8l-3.62 3.62c-.25.25-.58.37-.9.37zm-16.57 0c-.32 0-.65-.12-.9-.37l-3.62-3.62c-.5-.5-.5-1.3 0-1.8s1.3-.5 1.8 0l3.62 3.62a1.27 1.27 0 0 1-.9 2.17z"/></defs><g><g transform="translate(-601 -917)"><use fill="#20aa97" xlink:href="#ltjba"/></g></g></svg>