<svg xmlns="http://www.w3.org/2000/svg" xmlns:xlink="http://www.w3.org/1999/xlink" width="79" height="72" viewBox="0 0 79 72"><defs><path id="cjoha" d="M955.4 654.06c-9.2 0-17.31-4.67-22.03-11.74l-7.22 7a1.29 1.29 0 0 1-1.81-.01c-.5-.5-.5-1.3.01-1.8l7.67-7.44c-1.9-3.6-3-7.7-3-12.04 0-14.35 11.84-26.03 26.38-26.03 9.4 0 17.65 4.87 22.33 12.18l.07-.07 8.33-8.1h-5.1c-.7 0-1.28-.56-1.28-1.26s.57-1.27 1.28-1.27h8.04c.7 0 1.28.57 1.28 1.27v7.93c0 .7-.57 1.26-1.28 1.26-.71 0-1.29-.56-1.29-1.26v-4.71l-8.18 7.94c-.2.19-.43.3-.68.35a25.73 25.73 0 0 1-3.88 29.13l4.53 4.47 2.2-2.18a3.62 3.62 0 0 1 5.07 0l10.4 10.27a5.8 5.8 0 0 1 0 8.28l-3.1 3.07a5.96 5.96 0 0 1-8.4 0l-10.4-10.27a3.48 3.48 0 0 1 0-5l2.42-2.38-4.52-4.46a26.47 26.47 0 0 1-17.84 6.87zm0-49.52c-13.12 0-23.8 10.54-23.8 23.49s10.68 23.5 23.8 23.5c13.13 0 23.81-10.55 23.81-23.5s-10.68-23.5-23.8-23.5zm28.9 44.64c-.25 0-.5.1-.7.29l-6.45 6.36a.99.99 0 0 0 0 1.4l10.4 10.28a3.4 3.4 0 0 0 4.77 0l3.11-3.07a3.3 3.3 0 0 0 0-4.7l-10.4-10.27c-.2-.2-.46-.3-.72-.3zm-44.37-14.84c-.33 0-.67-.12-.92-.38-.5-.5-.48-1.3.02-1.79l10.5-10.1a1.3 1.3 0 0 1 1.79 0l9.7 9.21 8.93-9.17c.5-.5 1.3-.52 1.82-.04.5.48.52 1.29.03 1.8l-9.82 10.08a1.3 1.3 0 0 1-1.82.04l-9.73-9.24-9.6 9.23c-.25.24-.58.36-.9.36z"/></defs><g><g transform="translate(-922 -601)"><use fill="#20aa97" xlink:href="#cjoha"/></g></g></svg>