<svg xmlns="http://www.w3.org/2000/svg" xmlns:xlink="http://www.w3.org/1999/xlink" width="73" height="71" viewBox="0 0 73 71"><defs><path id="6iz2a" d="M1597.98 951.93h-3.9a3.7 3.7 0 0 1-3.68-3c-1.3.94-3.48.77-4.7-.44l-2.78-2.76a3.72 3.72 0 0 1-.43-4.7 3.63 3.63 0 0 1-3.03-3.62v-3.88a3.69 3.69 0 0 1 3.02-3.65c-1.03-1.3-.87-3.36.44-4.67l2.78-2.76a3.78 3.78 0 0 1 4.73-.43 3.65 3.65 0 0 1 3.65-3h3.9a3.7 3.7 0 0 1 3.68 2.99c1.3-1.02 3.38-.86 4.7.44l2.76 2.75a3.63 3.63 0 0 1 .44 4.71 3.63 3.63 0 0 1 3.03 3.62v3.88a3.69 3.69 0 0 1-3.01 3.65c1.02 1.3.87 3.36-.45 4.67l-2.78 2.76a3.85 3.85 0 0 1-4.73.43c-.25 1.7-1.8 3-3.64 3zm-6.68-6.42c.16 0 .33.03.48.1.4.16.68.51.76.93l.31 1.78c.08.68.59 1.1 1.23 1.1h3.9c.61 0 1.1-.4 1.17-.97l.32-1.9a1.26 1.26 0 0 1 1.96-.81l1.48 1.02c.62.48 1.26.36 1.66-.04l2.78-2.76c.43-.43.5-1.07.16-1.47l-1.15-1.6a1.25 1.25 0 0 1 .81-1.95l1.8-.32a1.2 1.2 0 0 0 1.1-1.21v-3.88c0-.6-.4-1.1-.98-1.16l-1.9-.32a1.24 1.24 0 0 1-.82-1.95l1.02-1.47c.44-.56.42-1.22-.01-1.63l-.03-.02-2.78-2.76c-.42-.42-1.07-.5-1.47-.16l-1.62 1.14a1.26 1.26 0 0 1-1.96-.8l-.32-1.79a1.2 1.2 0 0 0-1.22-1.1h-3.9c-.62 0-1.1.41-1.17.98l-.33 1.9c-.07.42-.35.78-.75.94-.4.17-.85.12-1.2-.12l-1.49-1.03a1.28 1.28 0 0 0-1.68.06l-2.76 2.74c-.43.42-.5 1.07-.15 1.47l1.14 1.6a1.24 1.24 0 0 1-.8 1.95l-1.8.31a1.2 1.2 0 0 0-1.11 1.22v3.88c0 .6.41 1.1.99 1.16l1.9.32a1.25 1.25 0 0 1 .82 1.95l-1.02 1.47c-.42.53-.38 1.22.06 1.67l2.75 2.74c.41.4 1.25.36 1.47.17l.1-.08 1.52-1.07c.22-.15.47-.23.73-.23zm5.3-2.57a7.5 7.5 0 0 1-7.53-7.47 7.5 7.5 0 0 1 7.52-7.47 7.5 7.5 0 0 1 7.52 7.47 7.5 7.5 0 0 1-7.52 7.47zm0-12.44a5 5 0 0 0-5.01 4.97 5 5 0 0 0 10 0 5 5 0 0 0-5-4.97zm-21.93 57.5c-.32 0-.64-.13-.88-.36l-14.42-13.96a1.25 1.25 0 0 1 0-1.78l10.32-10.19a17.18 17.18 0 0 1 17.6-3.95l2.06.72h13.75a5.6 5.6 0 0 1 5.62 5.58v.22a5.74 5.74 0 0 1-5.77 5.43h-8.42c-.25 0-.45.2-.45.44 0 .25.2.45.45.45h8.38a6.72 6.72 0 0 0 6.73-6.32c.01-.28.12-.65.31-.86l7.75-8.67a5.97 5.97 0 0 1 8.16-.77 5.77 5.77 0 0 1 .69 8.32l-15.46 17.56a12.14 12.14 0 0 1-9.12 4.12h-22.75l-3.66 3.65c-.25.24-.57.36-.9.36zm-12.62-15.22l12.6 12.2 3.16-3.13c.24-.23.56-.37.9-.37h23.26c2.77 0 5.4-1.19 7.22-3.26l15.48-17.58a3.3 3.3 0 0 0-.39-4.7 3.44 3.44 0 0 0-4.69.46l-7.46 8.35a9.24 9.24 0 0 1-9.22 8.35h-8.38a2.96 2.96 0 0 1-2.97-2.94 2.96 2.96 0 0 1 2.97-2.95h8.4a3.24 3.24 0 0 0 3.27-3.05 3.1 3.1 0 0 0-3.1-3.18h-13.97c-.14 0-.28-.03-.41-.07l-2.26-.8a14.63 14.63 0 0 0-15 3.38z"/></defs><g><g transform="translate(-1557 -918)"><use fill="#20aa97" xlink:href="#6iz2a"/></g></g></svg>