<svg xmlns="http://www.w3.org/2000/svg" xmlns:xlink="http://www.w3.org/1999/xlink" width="73" height="73" viewBox="0 0 73 73"><defs><path id="u4jja" d="M335.64 974.29c-5.25 0-10.2-2-13.93-5.63l-15.5-15.06a18.59 18.59 0 0 1-3.74-21.92c.06-.12.14-.23.24-.33a6.92 6.92 0 0 1 6.17-3.63 7 7 0 0 1 4.86 1.93l6.57 6.24a6.5 6.5 0 0 1 1.99 5.28c0 1.55-.93 3.34-2.48 4.66-.47.37-.73.87-.73 1.34l-.01.17c-.1.65.27 1.13.5 1.36l7.03 6.82c.36.36.86.53 1.38.5a1.92 1.92 0 0 0 1.38-.68 6.82 6.82 0 0 1 5.39-2.46c1.82 0 3.65.76 5 2.07l6.58 6.4a6.34 6.34 0 0 1 1.82 5.78 6.53 6.53 0 0 1-3.57 4.94c-.1.1-.2.17-.31.23-2.53 1.3-5.52 1.99-8.64 1.99zm-30.96-41.3a16.14 16.14 0 0 0 3.36 18.84l15.5 15.06a17.26 17.26 0 0 0 12.1 4.9c2.63 0 5.14-.56 7.27-1.62v-.01c.1-.1.22-.17.34-.23a4.04 4.04 0 0 0 2.37-3.2 3.95 3.95 0 0 0-1.1-3.61l-6.58-6.4a4.63 4.63 0 0 0-3.18-1.34c-1.38 0-2.6.55-3.37 1.51a4.53 4.53 0 0 1-6.6.4l-7.02-6.82a4.02 4.02 0 0 1-1.25-3.4 4.2 4.2 0 0 1 1.65-3.16c.94-.8 1.56-1.91 1.56-2.86a4.1 4.1 0 0 0-1.23-3.38l-6.57-6.24a4.44 4.44 0 0 0-7.01 1.23c-.06.12-.14.23-.24.32zm54.31 18.2a1.26 1.26 0 0 1-1.28 1.34c-.67 0-1.24-.5-1.29-1.16-.9-12.84-10.06-23.52-22.84-26.7l2.25 3.96c.34.61.11 1.37-.5 1.7a1.3 1.3 0 0 1-1.76-.49l-3.63-6.43c-.35-.6-.12-1.36.5-1.7l6.61-3.53a1.3 1.3 0 0 1 1.75.49c.34.6.12 1.37-.5 1.7l-3.69 1.97c13.66 3.57 23.4 15.06 24.38 28.86zm-68.98 2.65a1.26 1.26 0 0 1 1.2-1.34c.72-.04 1.32.48 1.37 1.17.9 12.84 10.06 23.52 22.84 26.7l-2.24-3.97c-.35-.6-.12-1.37.5-1.7a1.3 1.3 0 0 1 1.75.5l3.64 6.42c.34.6.11 1.37-.5 1.7l-6.62 3.54a1.31 1.31 0 0 1-1.75-.5c-.34-.6-.11-1.36.51-1.7l3.68-1.97c-13.65-3.56-23.4-15.06-24.38-28.85zm41.84-7.03a5.22 5.22 0 0 1-2.11-.62.92.92 0 0 1-.3-1.34v-.02a.96.96 0 0 1 1.26-.26c.53.3 1.18.52 1.93.52.72 0 1.17-.27 1.17-.65 0-1.09-4.64-.22-4.64-3.28 0-1.2.94-2.3 2.69-2.5v-1.12h1.36v1.14c.59.08 1.14.24 1.63.48.52.25.63.92.28 1.37a.99.99 0 0 1-1.21.25 3.99 3.99 0 0 0-1.7-.4c-.62 0-.9.24-.9.57 0 1.02 4.63.28 4.63 3.24 0 1.43-.97 2.43-2.73 2.62v1.08h-1.36z"/></defs><g><g transform="translate(-288 -916)"><use fill="#20aa97" xlink:href="#u4jja"/></g></g></svg>