<svg xmlns="http://www.w3.org/2000/svg" xmlns:xlink="http://www.w3.org/1999/xlink" width="77" height="71" viewBox="0 0 77 71"><defs><path id="3ubta" d="M677.74 671h-67.46c-.7 0-1.27-.57-1.27-1.26v-66.48c0-.7.57-1.26 1.27-1.26.7 0 1.27.56 1.27 1.26v60.66l4.83-12.1c.16-.4.5-.68.93-.77.43-.08.86.06 1.16.36l4.28 4.36 5.85-10.98c.17-.34.5-.58.87-.65.38-.07.77.02 1.06.26l5.68 4.63 3.56-4.3a23.39 23.39 0 0 1-8.81-18.26c0-12.97 10.67-23.52 23.8-23.52 13.11 0 23.78 10.55 23.78 23.52 0 12.97-10.67 23.52-23.79 23.52-4.76 0-9.2-1.39-12.92-3.78l-4.46 5.4a1.27 1.27 0 0 1-1.8.16l-5.45-4.45-5.94 11.15a1.27 1.27 0 0 1-2.03.29l-4.13-4.2-5.55 13.92H627v-3.97c0-.7.57-1.26 1.27-1.26.7 0 1.27.56 1.27 1.26v3.97H645v-3.97c0-.7.56-1.26 1.27-1.26.7 0 1.27.56 1.27 1.26v3.97h15.44v-3.97c0-.7.57-1.26 1.28-1.26.7 0 1.27.56 1.27 1.26v3.97h12.22c.7 0 1.27.56 1.27 1.26s-.57 1.26-1.27 1.26zm-22.99-65.53c-11.72 0-21.25 9.42-21.25 21 0 11.59 9.53 21 21.25 21s21.25-9.41 21.25-21c0-11.58-9.53-21-21.25-21zm-8.5 32.88c-.27 0-.55-.1-.79-.28a1.25 1.25 0 0 1-.2-1.76l17.5-21.6a1.28 1.28 0 0 1 1.78-.2c.55.44.64 1.23.2 1.77l-17.5 21.6c-.24.3-.61.47-.98.47zm2-12.6a5.74 5.74 0 0 1-5.76-5.7c0-3.14 2.59-5.7 5.77-5.7a5.74 5.74 0 0 1 5.76 5.7c0 3.14-2.58 5.7-5.76 5.7zm0-8.89a3.21 3.21 0 0 0-3.22 3.2 3.21 3.21 0 0 0 3.23 3.18 3.21 3.21 0 0 0 3.22-3.19 3.21 3.21 0 0 0-3.22-3.19zm13 21.74a5.74 5.74 0 0 1-5.77-5.7c0-3.15 2.59-5.7 5.77-5.7a5.74 5.74 0 0 1 5.77 5.7c0 3.14-2.6 5.7-5.77 5.7zm0-8.9a3.21 3.21 0 0 0-3.23 3.2 3.21 3.21 0 0 0 3.23 3.18 3.21 3.21 0 0 0 3.22-3.19 3.21 3.21 0 0 0-3.22-3.19z"/></defs><g><g transform="translate(-604 -601)"><use fill="#20aa97" xlink:href="#3ubta"/></g></g></svg>